<svg width="16" height="16" viewBox="0 0 16 16" fill="none" xmlns="http://www.w3.org/2000/svg">
<path fill-rule="evenodd" clip-rule="evenodd" d="M12.7655 5.4845C12.8004 5.51933 12.8281 5.56071 12.847 5.60627C12.8659 5.65183 12.8757 5.70067 12.8757 5.75C12.8757 5.79932 12.8659 5.84817 12.847 5.89372C12.8281 5.93928 12.8004 5.98066 12.7655 6.0155L8.2655 10.5155C8.23067 10.5504 8.18928 10.5781 8.14373 10.597C8.09817 10.6159 8.04933 10.6257 8 10.6257C7.95068 10.6257 7.90184 10.6159 7.85628 10.597C7.81072 10.5781 7.76934 10.5504 7.7345 10.5155L3.2345 6.0155C3.16409 5.94508 3.12453 5.84958 3.12453 5.75C3.12453 5.65042 3.16409 5.55491 3.2345 5.4845C3.30492 5.41408 3.40042 5.37452 3.5 5.37452C3.59958 5.37452 3.69509 5.41408 3.7655 5.4845L8 9.71975L12.2345 5.4845C12.2693 5.44958 12.3107 5.42187 12.3563 5.40296C12.4018 5.38406 12.4507 5.37433 12.5 5.37433C12.5493 5.37433 12.5982 5.38406 12.6437 5.40296C12.6893 5.42187 12.7307 5.44958 12.7655 5.4845V5.4845Z" fill="black"/>
</svg>
