<svg width="16" height="16" viewBox="0 0 16 16" fill="none" xmlns="http://www.w3.org/2000/svg">
<path fill-rule="evenodd" clip-rule="evenodd" d="M5.4845 3.2345C5.51933 3.19958 5.56071 3.17187 5.60627 3.15296C5.65183 3.13406 5.70067 3.12433 5.75 3.12433C5.79932 3.12433 5.84817 3.13406 5.89372 3.15296C5.93928 3.17187 5.98066 3.19958 6.0155 3.2345L10.5155 7.7345C10.5504 7.76933 10.5781 7.81072 10.597 7.85627C10.6159 7.90183 10.6257 7.95067 10.6257 8C10.6257 8.04932 10.6159 8.09816 10.597 8.14372C10.5781 8.18928 10.5504 8.23066 10.5155 8.2655L6.0155 12.7655C5.94508 12.8359 5.84958 12.8755 5.75 12.8755C5.65042 12.8755 5.55491 12.8359 5.4845 12.7655C5.41408 12.6951 5.37452 12.5996 5.37452 12.5C5.37452 12.4004 5.41408 12.3049 5.4845 12.2345L9.71975 8L5.4845 3.7655C5.44958 3.73066 5.42187 3.68928 5.40296 3.64372C5.38406 3.59817 5.37433 3.54932 5.37433 3.5C5.37433 3.45067 5.38406 3.40183 5.40296 3.35627C5.42187 3.31071 5.44958 3.26933 5.4845 3.2345V3.2345Z" fill="black"/>
</svg>
