<svg width="16" height="16" viewBox="0 0 16 16" fill="none" xmlns="http://www.w3.org/2000/svg">
<path d="M3.375 8.5C3.375 8.59946 3.33549 8.69484 3.26517 8.76517C3.19484 8.83549 3.09946 8.875 3 8.875H1.5C1.40054 8.875 1.30516 8.83549 1.23483 8.76517C1.16451 8.69484 1.125 8.59946 1.125 8.5C1.125 8.40055 1.16451 8.30516 1.23483 8.23484C1.30516 8.16451 1.40054 8.125 1.5 8.125H2.125V3.875H1.5C1.40054 3.875 1.30516 3.83549 1.23483 3.76517C1.16451 3.69484 1.125 3.59946 1.125 3.5C1.125 3.40055 1.16451 3.30516 1.23483 3.23484C1.30516 3.16451 1.40054 3.125 1.5 3.125H2.5C2.56361 3.12474 2.62624 3.14067 2.68201 3.17128C2.73777 3.2019 2.78482 3.24619 2.81875 3.3L5 6.79375L7.18125 3.3C7.21518 3.24619 7.26223 3.2019 7.31799 3.17128C7.37376 3.14067 7.43639 3.12474 7.5 3.125H8.5C8.59946 3.125 8.69484 3.16451 8.76517 3.23484C8.83549 3.30516 8.875 3.40055 8.875 3.5C8.875 3.59946 8.83549 3.69484 8.76517 3.76517C8.69484 3.83549 8.59946 3.875 8.5 3.875H7.875V8.125H8.5C8.59946 8.125 8.69484 8.16451 8.76517 8.23484C8.83549 8.30516 8.875 8.40055 8.875 8.5C8.875 8.59946 8.83549 8.69484 8.76517 8.76517C8.69484 8.83549 8.59946 8.875 8.5 8.875H7C6.90054 8.875 6.80516 8.83549 6.73484 8.76517C6.66451 8.69484 6.625 8.59946 6.625 8.5C6.625 8.40055 6.66451 8.30516 6.73484 8.23484C6.80516 8.16451 6.90054 8.125 7 8.125H7.125V4.80625L5.31875 7.7C5.28512 7.75427 5.23819 7.79905 5.18241 7.83011C5.12663 7.86116 5.06384 7.87746 5 7.87746C4.93616 7.87746 4.87337 7.86116 4.81759 7.83011C4.76181 7.79905 4.71488 7.75427 4.68125 7.7L2.875 4.80625V8.125H3C3.09946 8.125 3.19484 8.16451 3.26517 8.23484C3.33549 8.30516 3.375 8.40055 3.375 8.5ZM10.5 6.875H15C15.0995 6.875 15.1948 6.83549 15.2652 6.76517C15.3355 6.69484 15.375 6.59946 15.375 6.5C15.375 6.40055 15.3355 6.30516 15.2652 6.23484C15.1948 6.16451 15.0995 6.125 15 6.125H10.5C10.4005 6.125 10.3052 6.16451 10.2348 6.23484C10.1645 6.30516 10.125 6.40055 10.125 6.5C10.125 6.59946 10.1645 6.69484 10.2348 6.76517C10.3052 6.83549 10.4005 6.875 10.5 6.875V6.875ZM15 8.125H10.5C10.4005 8.125 10.3052 8.16451 10.2348 8.23484C10.1645 8.30516 10.125 8.40055 10.125 8.5C10.125 8.59946 10.1645 8.69484 10.2348 8.76517C10.3052 8.83549 10.4005 8.875 10.5 8.875H15C15.0995 8.875 15.1948 8.83549 15.2652 8.76517C15.3355 8.69484 15.375 8.59946 15.375 8.5C15.375 8.40055 15.3355 8.30516 15.2652 8.23484C15.1948 8.16451 15.0995 8.125 15 8.125ZM15 10.125H4.5C4.40054 10.125 4.30516 10.1645 4.23484 10.2348C4.16451 10.3052 4.125 10.4005 4.125 10.5C4.125 10.5995 4.16451 10.6948 4.23484 10.7652C4.30516 10.8355 4.40054 10.875 4.5 10.875H15C15.0995 10.875 15.1948 10.8355 15.2652 10.7652C15.3355 10.6948 15.375 10.5995 15.375 10.5C15.375 10.4005 15.3355 10.3052 15.2652 10.2348C15.1948 10.1645 15.0995 10.125 15 10.125ZM15 12.125H4.5C4.40054 12.125 4.30516 12.1645 4.23484 12.2348C4.16451 12.3052 4.125 12.4005 4.125 12.5C4.125 12.5995 4.16451 12.6948 4.23484 12.7652C4.30516 12.8355 4.40054 12.875 4.5 12.875H15C15.0995 12.875 15.1948 12.8355 15.2652 12.7652C15.3355 12.6948 15.375 12.5995 15.375 12.5C15.375 12.4005 15.3355 12.3052 15.2652 12.2348C15.1948 12.1645 15.0995 12.125 15 12.125V12.125Z" fill="black"/>
</svg>
