<svg width="16" height="16" viewBox="0 0 16 16" fill="none" xmlns="http://www.w3.org/2000/svg">
<path d="M14.3334 2.66666H12.8889V3.55555H14.2222V13.3333H1.7778V3.55555H3.11113V2.66666H1.66669C1.56279 2.66839 1.46026 2.69058 1.36494 2.73195C1.26962 2.77332 1.18338 2.83306 1.11116 2.90776C1.03893 2.98247 0.982129 3.07067 0.943995 3.16732C0.905861 3.26398 0.887142 3.36721 0.888908 3.4711V13.4178C0.887142 13.5217 0.905861 13.6249 0.943995 13.7215C0.982129 13.8182 1.03893 13.9064 1.11116 13.9811C1.18338 14.0558 1.26962 14.1156 1.36494 14.1569C1.46026 14.1983 1.56279 14.2205 1.66669 14.2222H14.3334C14.4372 14.2205 14.5398 14.1983 14.6351 14.1569C14.7304 14.1156 14.8167 14.0558 14.8889 13.9811C14.9611 13.9064 15.0179 13.8182 15.056 13.7215C15.0942 13.6249 15.1129 13.5217 15.1111 13.4178V3.4711C15.1129 3.36721 15.0942 3.26398 15.056 3.16732C15.0179 3.07067 14.9611 2.98247 14.8889 2.90776C14.8167 2.83306 14.7304 2.77332 14.6351 2.73195C14.5398 2.69058 14.4372 2.66839 14.3334 2.66666Z" fill="#999999"/>
<path d="M3.55554 6.22223H4.44443V7.11112H3.55554V6.22223Z" fill="#999999"/>
<path d="M6.22217 6.22223H7.11106V7.11112H6.22217V6.22223Z" fill="#999999"/>
<path d="M8.88892 6.22223H9.7778V7.11112H8.88892V6.22223Z" fill="#999999"/>
<path d="M11.5555 6.22223H12.4444V7.11112H11.5555V6.22223Z" fill="#999999"/>
<path d="M3.55554 8.44446H4.44443V9.33335H3.55554V8.44446Z" fill="#999999"/>
<path d="M6.22217 8.44446H7.11106V9.33335H6.22217V8.44446Z" fill="#999999"/>
<path d="M8.88892 8.44446H9.7778V9.33335H8.88892V8.44446Z" fill="#999999"/>
<path d="M11.5555 8.44446H12.4444V9.33335H11.5555V8.44446Z" fill="#999999"/>
<path d="M3.55554 10.6667H4.44443V11.5555H3.55554V10.6667Z" fill="#999999"/>
<path d="M6.22217 10.6667H7.11106V11.5555H6.22217V10.6667Z" fill="#999999"/>
<path d="M8.88892 10.6667H9.7778V11.5555H8.88892V10.6667Z" fill="#999999"/>
<path d="M11.5555 10.6667H12.4444V11.5555H11.5555V10.6667Z" fill="#999999"/>
<path d="M4.44444 4.44444C4.56232 4.44444 4.67536 4.39762 4.75871 4.31427C4.84206 4.23092 4.88889 4.11787 4.88889 4V1.33333C4.88889 1.21546 4.84206 1.10241 4.75871 1.01906C4.67536 0.935711 4.56232 0.888885 4.44444 0.888885C4.32657 0.888885 4.21352 0.935711 4.13017 1.01906C4.04683 1.10241 4 1.21546 4 1.33333V4C4 4.11787 4.04683 4.23092 4.13017 4.31427C4.21352 4.39762 4.32657 4.44444 4.44444 4.44444Z" fill="#999999"/>
<path d="M11.5555 4.44444C11.6734 4.44444 11.7864 4.39762 11.8698 4.31427C11.9531 4.23092 12 4.11787 12 4V1.33333C12 1.21546 11.9531 1.10241 11.8698 1.01906C11.7864 0.935711 11.6734 0.888885 11.5555 0.888885C11.4377 0.888885 11.3246 0.935711 11.2413 1.01906C11.1579 1.10241 11.1111 1.21546 11.1111 1.33333V4C11.1111 4.11787 11.1579 4.23092 11.2413 4.31427C11.3246 4.39762 11.4377 4.44444 11.5555 4.44444Z" fill="#999999"/>
<path d="M5.77783 2.66666H10.2223V3.55555H5.77783V2.66666Z" fill="#999999"/>
</svg>
