<svg width="16" height="16" viewBox="0 0 16 16" fill="none" xmlns="http://www.w3.org/2000/svg">
<path d="M7.13201 2.83271C7.36401 2.80071 7.5104 2.80551 7.6224 2.82791C7.76083 2.85992 7.89248 2.91626 8.0112 2.99431C8.07878 3.03579 8.15391 3.06346 8.23225 3.07573C8.31058 3.088 8.39058 3.08462 8.4676 3.06579C8.54462 3.04696 8.61715 3.01305 8.68099 2.96601C8.74482 2.91898 8.79871 2.85976 8.83952 2.79178C8.88033 2.72379 8.90726 2.64839 8.91875 2.56994C8.93025 2.49148 8.92608 2.41153 8.90648 2.3347C8.88689 2.25786 8.85226 2.18568 8.8046 2.12231C8.75694 2.05894 8.69719 2.00564 8.6288 1.96551C8.39214 1.81651 8.13109 1.71035 7.8576 1.65191C7.5704 1.59431 7.27841 1.59991 6.95521 1.64631L6.9408 1.64791C6.3008 1.75511 5.79921 2.08551 5.45681 2.57751C5.12641 3.05431 4.96641 3.64951 4.92081 4.27751C4.92004 4.29163 4.91977 4.30577 4.92001 4.31991V4.32631L4.91921 4.34551L4.9168 4.41191L4.9064 4.62791C4.8984 4.80551 4.8848 5.04391 4.8696 5.32551L4.8656 5.39991H3.84001C3.68088 5.39991 3.52826 5.46312 3.41574 5.57564C3.30322 5.68817 3.24001 5.84078 3.24001 5.99991C3.24001 6.15904 3.30322 6.31165 3.41574 6.42417C3.52826 6.53669 3.68088 6.59991 3.84001 6.59991H4.796L4.75041 7.37431C4.68042 8.58058 4.60388 9.78647 4.52081 10.9919C4.43521 12.0191 4.34481 12.7023 3.69921 13.0799C3.37681 13.2631 2.884 13.2519 2.3472 12.9839C2.20623 12.9219 2.04683 12.9165 1.90198 12.9688C1.75714 13.0211 1.63795 13.1271 1.56908 13.2648C1.50021 13.4026 1.48694 13.5615 1.53201 13.7088C1.57708 13.856 1.67704 13.9803 1.8112 14.0559C2.5528 14.4279 3.4992 14.5767 4.2968 14.1207L4.3016 14.1183C5.528 13.4023 5.63601 12.0783 5.70961 11.1855L5.7176 11.0895V11.0855C5.7648 10.4711 5.89761 8.31751 5.99761 6.59991H7.44001C7.59914 6.59991 7.75175 6.53669 7.86427 6.42417C7.97679 6.31165 8.04 6.15904 8.04 5.99991C8.04 5.84078 7.97679 5.68817 7.86427 5.57564C7.75175 5.46312 7.59914 5.39991 7.44001 5.39991H6.06721C6.09681 4.86551 6.11681 4.47511 6.11921 4.34711C6.15601 3.86231 6.27521 3.50311 6.44241 3.26231C6.60001 3.03591 6.816 2.88631 7.13201 2.83271V2.83271ZM13.424 8.22471C13.4813 8.16939 13.5271 8.1032 13.5586 8.03001C13.59 7.95683 13.6066 7.8781 13.6074 7.79843C13.6081 7.71877 13.5929 7.63975 13.5628 7.566C13.5327 7.49225 13.4882 7.42524 13.4318 7.36888C13.3755 7.31251 13.3086 7.26793 13.2348 7.23773C13.1611 7.20752 13.0821 7.19231 13.0024 7.19296C12.9228 7.19362 12.844 7.21013 12.7708 7.24154C12.6976 7.27295 12.6314 7.31863 12.576 7.37591L10.5128 9.43831C10.3024 9.08163 10.0997 8.72048 9.9048 8.35511L9.8464 8.26231C9.724 8.06631 9.5416 7.77351 9.32 7.56871C9.15571 7.41105 8.95253 7.2998 8.7312 7.24631C8.47391 7.19111 8.20571 7.21941 7.9656 7.32711C7.92611 7.3441 7.88857 7.36529 7.85361 7.39031L7.82721 7.40791C7.74552 7.46208 7.66966 7.52455 7.60081 7.59431C7.56481 7.63191 7.52881 7.67431 7.49521 7.71351L7.47761 7.73431L7.3464 7.88631C7.24212 8.00661 7.1899 8.16341 7.20123 8.32222C7.21255 8.48102 7.2865 8.62882 7.40681 8.73311C7.52711 8.83739 7.68391 8.88961 7.84271 8.87829C8.00152 8.86696 8.14932 8.79301 8.2536 8.67271L8.392 8.51111L8.4088 8.49111C8.4424 8.45111 8.4552 8.43671 8.4624 8.42951L8.472 8.42231C8.48 8.42711 8.4904 8.43591 8.5048 8.44951C8.5504 8.49111 8.60481 8.55751 8.67441 8.65991C8.72057 8.72808 8.76538 8.79716 8.8088 8.86711L8.8792 8.97911C8.976 9.16711 9.2712 9.69671 9.636 10.3151L7.37601 12.5759C7.31706 12.6308 7.26977 12.6971 7.23698 12.7707C7.20419 12.8443 7.18655 12.9237 7.18513 13.0043C7.18371 13.0849 7.19853 13.1649 7.22871 13.2396C7.25888 13.3143 7.3038 13.3822 7.36077 13.4391C7.41775 13.4961 7.48562 13.541 7.56033 13.5712C7.63504 13.6014 7.71506 13.6162 7.79562 13.6148C7.87619 13.6134 7.95564 13.5957 8.02924 13.5629C8.10283 13.5301 8.16907 13.4829 8.224 13.4239L10.3536 11.2951C10.5795 11.6773 10.7972 12.0643 11.0064 12.4559L11.0464 12.5255C11.1504 12.7023 11.3264 13.0031 11.5584 13.2231C11.7024 13.3599 11.896 13.4951 12.1448 13.5607C12.427 13.6315 12.7248 13.6044 12.9896 13.4839C13.2744 13.3415 13.4504 13.1575 13.6328 12.8607C13.7159 12.7249 13.7416 12.5617 13.7043 12.4069C13.667 12.2522 13.5698 12.1186 13.434 12.0355C13.2982 11.9524 13.135 11.9267 12.9802 11.964C12.8255 12.0013 12.6919 12.0985 12.6088 12.2343C12.5807 12.2849 12.5468 12.3322 12.508 12.3751C12.5004 12.3829 12.4918 12.3896 12.4824 12.3951C12.4738 12.3975 12.4649 12.3991 12.456 12.3999H12.4504C12.4504 12.3999 12.4448 12.3983 12.4344 12.3919C12.4163 12.3804 12.3994 12.367 12.384 12.3519C12.3224 12.2897 12.2679 12.2207 12.2216 12.1463C12.1777 12.0786 12.1356 12.0098 12.0952 11.9399L12.0472 11.8575C11.7857 11.3718 11.5133 10.8919 11.2304 10.4183L13.424 8.22391V8.22471ZM8.4784 8.41831H8.48H8.4784Z" fill="black"/>
</svg>
