<svg width="16" height="16" viewBox="0 0 16 16" fill="none" xmlns="http://www.w3.org/2000/svg">
<path fill-rule="evenodd" clip-rule="evenodd" d="M5.33332 3.33325C5.51013 3.33325 5.6797 3.40349 5.80473 3.52851C5.92975 3.65354 5.99999 3.82311 5.99999 3.99992V7.33325H9.99999V3.99992C9.99999 3.82311 10.0702 3.65354 10.1953 3.52851C10.3203 3.40349 10.4898 3.33325 10.6667 3.33325C10.8435 3.33325 11.013 3.40349 11.1381 3.52851C11.2631 3.65354 11.3333 3.82311 11.3333 3.99992V11.9999C11.3333 12.1767 11.2631 12.3463 11.1381 12.4713C11.013 12.5963 10.8435 12.6666 10.6667 12.6666C10.4898 12.6666 10.3203 12.5963 10.1953 12.4713C10.0702 12.3463 9.99999 12.1767 9.99999 11.9999V8.66659H5.99999V11.9999C5.99999 12.1767 5.92975 12.3463 5.80473 12.4713C5.6797 12.5963 5.51013 12.6666 5.33332 12.6666C5.15651 12.6666 4.98694 12.5963 4.86192 12.4713C4.73689 12.3463 4.66666 12.1767 4.66666 11.9999V3.99992C4.66666 3.82311 4.73689 3.65354 4.86192 3.52851C4.98694 3.40349 5.15651 3.33325 5.33332 3.33325V3.33325Z" fill="black"/>
</svg>
