<svg width="16" height="16" viewBox="0 0 16 16" fill="none" xmlns="http://www.w3.org/2000/svg">
<path d="M4.715 6.542L3.343 7.914C2.78035 8.47666 2.46425 9.23978 2.46425 10.0355C2.46425 10.8312 2.78035 11.5943 3.343 12.157C3.90566 12.7197 4.66879 13.0358 5.4645 13.0358C6.26022 13.0358 7.02335 12.7197 7.586 12.157L9.414 10.328C9.7533 9.98866 10.0062 9.57287 10.1516 9.11555C10.2969 8.65822 10.3305 8.1727 10.2494 7.69974C10.1682 7.22677 9.97486 6.78016 9.68543 6.3974C9.396 6.01464 9.01898 5.7069 8.586 5.5L8 6.086C7.94051 6.1456 7.88877 6.21246 7.846 6.285C8.18053 6.38117 8.48417 6.56298 8.7269 6.81246C8.96963 7.06194 9.14304 7.37044 9.23 7.70748C9.31696 8.04452 9.31446 8.39842 9.22273 8.73419C9.13101 9.06996 8.95324 9.37598 8.707 9.622L6.88 11.45C6.50472 11.8253 5.99573 12.0361 5.465 12.0361C4.93427 12.0361 4.42528 11.8253 4.05 11.45C3.67472 11.0747 3.46389 10.5657 3.46389 10.035C3.46389 9.50427 3.67472 8.99528 4.05 8.62L4.843 7.828C4.73112 7.40873 4.68789 6.9741 4.715 6.541V6.542Z" fill="black"/>
<path d="M6.586 4.67209C6.24671 5.01143 5.99377 5.42721 5.84841 5.88454C5.70306 6.34186 5.66953 6.82739 5.75064 7.30035C5.83176 7.77332 6.02514 8.21992 6.31457 8.60268C6.604 8.98544 6.98103 9.29319 7.414 9.50009L8.189 8.72409C7.84995 8.63314 7.54081 8.45456 7.29264 8.20629C7.04447 7.95802 6.86602 7.6488 6.77521 7.30971C6.68441 6.97062 6.68446 6.6136 6.77535 6.27453C6.86624 5.93547 7.04477 5.62629 7.293 5.37809L9.12 3.55009C9.49528 3.1748 10.0043 2.96397 10.535 2.96397C11.0657 2.96397 11.5747 3.1748 11.95 3.55009C12.3253 3.92537 12.5361 4.43436 12.5361 4.96509C12.5361 5.49581 12.3253 6.0048 11.95 6.38009L11.157 7.17209C11.269 7.59209 11.312 8.02709 11.285 8.45909L12.657 7.08709C13.2197 6.52443 13.5358 5.7613 13.5358 4.96559C13.5358 4.16987 13.2197 3.40674 12.657 2.84409C12.0943 2.28143 11.3312 1.96533 10.5355 1.96533C9.73979 1.96533 8.97666 2.28143 8.414 2.84409L6.586 4.67209Z" fill="black"/>
</svg>
